<?xml version="1.0" standalone="no"?>
<!DOCTYPE svg PUBLIC "-//W3C//DTD SVG 20010904//EN"
 "http://www.w3.org/TR/2001/REC-SVG-20010904/DTD/svg10.dtd">
<svg version="1.0" xmlns="http://www.w3.org/2000/svg"
 width="225.000000pt" height="225.000000pt" viewBox="0 0 225.000000 225.000000"
 preserveAspectRatio="xMidYMid meet">
<metadata>
Created by potrace 1.14, written by Peter Selinger 2001-2017
</metadata>
<g transform="translate(0.000000,225.000000) scale(0.100000,-0.100000)"
fill="#000000" stroke="none">
<path d="M1003 2070 c-97 -14 -180 -39 -282 -86 -261 -122 -449 -351 -522
-639 -33 -130 -32 -322 4 -455 75 -285 259 -508 521 -631 147 -69 216 -83 406
-83 151 0 173 3 255 28 243 74 435 220 560 426 55 92 109 242 126 350 15 101
6 285 -20 383 -72 274 -273 513 -528 629 -146 66 -368 99 -520 78z m747 -929
c0 -302 3 -556 6 -565 6 -14 -43 -16 -510 -16 l-516 0 0 558 c0 307 3 562 7
565 3 4 233 7 510 7 l503 0 0 -549z m-1040 -161 l0 -420 -25 0 c-66 0 -144 66
-164 137 -7 23 -11 169 -11 371 l0 332 100 0 100 0 0 -420z"/>
<path d="M950 1465 c0 -60 3 -75 15 -75 11 0 15 13 15 53 l0 52 31 -52 c44
-76 59 -71 59 22 0 85 -17 103 -22 23 l-3 -53 -30 52 c-18 32 -37 53 -47 53
-16 0 -18 -10 -18 -75z"/>
<path d="M1110 1465 l0 -75 50 0 c28 0 50 5 50 10 0 6 -16 10 -35 10 -31 0
-35 3 -35 26 0 23 3 26 25 22 17 -4 25 -1 25 8 0 8 -11 14 -25 14 -18 0 -25 5
-25 20 0 16 7 20 35 20 19 0 35 5 35 10 0 6 -22 10 -50 10 l-50 0 0 -75z"/>
<path d="M1230 1530 c0 -6 7 -40 16 -75 13 -50 21 -65 34 -65 13 0 21 14 31
53 l13 52 10 -50 c9 -39 15 -50 30 -50 20 0 21 3 49 118 6 20 4 27 -8 27 -8 0
-15 -8 -16 -17 0 -10 -6 -36 -13 -58 l-13 -40 -13 58 c-7 32 -19 57 -26 57 -7
0 -18 -24 -25 -55 -7 -30 -15 -52 -18 -49 -3 3 -10 26 -16 51 -5 26 -16 48
-22 51 -7 2 -13 -1 -13 -8z"/>
<path d="M1452 1528 c-22 -22 -12 -47 28 -73 40 -25 45 -45 11 -45 -9 0 -21 4
-27 10 -5 5 -15 6 -23 1 -11 -7 -8 -13 13 -27 37 -24 80 -10 84 28 3 22 -4 32
-39 53 -31 20 -38 30 -30 38 9 9 17 8 32 -1 25 -16 45 -6 28 14 -14 17 -61 18
-77 2z"/>
<path d="M870 1230 c0 -6 134 -10 381 -10 251 0 378 3 374 10 -4 6 -142 10
-381 10 -243 0 -374 -4 -374 -10z"/>
<path d="M870 1070 c0 -6 133 -10 380 -10 247 0 380 4 380 10 0 6 -133 10
-380 10 -247 0 -380 -4 -380 -10z"/>
<path d="M870 910 c0 -6 133 -10 380 -10 247 0 380 4 380 10 0 6 -133 10 -380
10 -247 0 -380 -4 -380 -10z"/>
<path d="M870 750 c0 -6 131 -10 374 -10 239 0 377 4 381 10 4 7 -123 10 -374
10 -247 0 -381 -4 -381 -10z"/>
</g>
</svg>
